<svg xmlns="http://www.w3.org/2000/svg" width="500" height="500" viewBox="0 0 500 500" version="1.1"><path d="M 482.500 73.025 C 442.197 77.335, 404.548 84.746, 375.203 94.146 C 365.873 97.135, 365.652 97.156, 359.619 95.670 C 336.472 89.966, 306.785 94.683, 265 110.702 C 228.394 124.737, 189.029 146.997, 158.537 170.904 C 138.653 186.495, 115.301 211.201, 104.377 228.206 C 82.388 262.438, 81.053 295.832, 100.872 315.896 C 121.213 336.489, 160.847 333.658, 197.542 308.992 C 205.385 303.721, 229.901 280.227, 239.267 269.009 C 241.788 265.989, 244.168 263.835, 244.555 264.222 C 245.797 265.464, 233.531 295.611, 230.336 299.169 C 229.511 300.087, 224.261 302.498, 218.668 304.528 C 205.693 309.236, 190.157 317.273, 179.698 324.688 C 169.290 332.067, 148.534 352.837, 144.145 360.264 C 133.840 377.707, 132.426 391.721, 140.092 400.452 C 141.746 402.336, 144.724 404.414, 146.708 405.069 C 152.401 406.948, 161.855 405.593, 170.230 401.698 C 189.995 392.507, 207.644 369.657, 230.971 323.059 C 239.837 305.346, 242.331 302, 246.663 302 C 249.905 302, 250.657 299.951, 248.159 297.928 C 246.972 296.966, 246 295.296, 246 294.217 C 246 293.137, 249.787 282.859, 254.415 271.377 C 265.407 244.106, 276.570 213.567, 277.439 208.386 C 278.230 203.673, 276.457 201, 272.539 201 C 268.536 201, 266.207 204.115, 260.206 217.500 C 251.321 237.318, 242.311 251.151, 225.428 270.892 C 203.910 296.054, 183.962 311.069, 161.658 318.895 C 152.207 322.211, 150.664 322.460, 139.482 322.479 C 127.966 322.499, 127.194 322.367, 120.982 319.305 C 104.366 311.115, 97.219 297.498, 98.253 276 C 99.228 255.725, 108.522 235.540, 127.030 213.500 C 134.786 204.264, 153.752 185.423, 162.500 178.265 C 202.039 145.912, 258.700 116.680, 305 104.749 C 318.453 101.283, 322.349 100.693, 334.500 100.286 C 342.200 100.029, 349.563 100.225, 350.863 100.723 C 352.987 101.536, 352.430 101.959, 345.363 104.895 C 319.267 115.738, 296.336 131.792, 284.885 147.237 C 274.798 160.840, 271.733 171.100, 273.876 184.078 C 277.772 207.669, 291.275 223.736, 355.500 281.202 C 392.529 314.334, 410.280 332.582, 412.453 339.750 C 413.483 343.150, 412.208 345.837, 408.679 347.704 C 399.918 352.339, 349.259 345.785, 334.108 338.055 C 329.036 335.467, 325.766 331.352, 326.590 328.593 C 327.748 324.715, 335.450 317.907, 342.801 314.264 C 349.275 311.055, 350.974 310.645, 357.801 310.638 C 363.976 310.632, 366.746 311.168, 371.795 313.347 C 378.136 316.083, 380 316.101, 380 313.426 C 380 309.579, 368.420 305.922, 356.113 305.883 C 338.113 305.826, 316.545 318.984, 316.545 330.023 C 316.545 338.786, 328.154 345.278, 354 350.970 C 374.856 355.563, 404.526 356.340, 413.754 352.534 C 418.630 350.523, 423.005 345.853, 422.990 342.673 C 422.973 338.789, 418.372 330.647, 412.371 323.880 C 405.436 316.060, 380.596 292.628, 352 266.932 C 307.689 227.115, 297.185 215.947, 289.518 200.500 C 284.133 189.652, 282.555 182.845, 283.318 173.751 C 285.060 152.969, 306.267 131.166, 340.500 114.960 C 347.100 111.836, 355.105 108.317, 358.289 107.139 L 364.079 104.999 367.023 107.175 C 377.750 115.106, 380.850 133.782, 374.435 151.836 C 371.168 161.032, 371.689 163.196, 376.745 161.424 C 381.954 159.599, 388 144.116, 388 132.602 C 388 122.068, 384.001 111.001, 378.042 105.042 L 374.251 101.251 388.876 97.153 C 419.886 88.464, 458.366 81.506, 492.250 78.461 L 500 77.765 500 74.383 C 500 72.522, 499.887 71.047, 499.750 71.104 C 499.613 71.161, 491.850 72.026, 482.500 73.025 M 218.971 310.442 C 191.873 320.429, 155.807 352.213, 147.870 373.100 C 144.060 383.127, 144.582 393.502, 149.101 397.591 C 157.327 405.034, 177.868 390.985, 194.619 366.459 C 206.574 348.954, 225.986 312.404, 224.557 310.091 C 223.741 308.772, 223.450 308.791, 218.971 310.442" stroke="none" fill="#271fcd" fill-rule="evenodd"/><path d="M 0 250.002 L 0 500.004 250.250 499.752 L 500.500 499.500 500.752 249.750 L 501.004 0 250.502 0 L 0 0 0 250.002 M 0.492 250.500 C 0.492 388, 0.608 444.101, 0.750 375.170 C 0.892 306.238, 0.892 193.738, 0.750 125.170 C 0.608 56.601, 0.492 113, 0.492 250.500 M 482.500 73.025 C 442.197 77.335, 404.548 84.746, 375.203 94.146 C 365.873 97.135, 365.652 97.156, 359.619 95.670 C 336.472 89.966, 306.785 94.683, 265 110.702 C 228.394 124.737, 189.029 146.997, 158.537 170.904 C 138.653 186.495, 115.301 211.201, 104.377 228.206 C 82.388 262.438, 81.053 295.832, 100.872 315.896 C 121.213 336.489, 160.847 333.658, 197.542 308.992 C 205.385 303.721, 229.901 280.227, 239.267 269.009 C 241.788 265.989, 244.168 263.835, 244.555 264.222 C 245.797 265.464, 233.531 295.611, 230.336 299.169 C 229.511 300.087, 224.261 302.498, 218.668 304.528 C 205.693 309.236, 190.157 317.273, 179.698 324.688 C 169.290 332.067, 148.534 352.837, 144.145 360.264 C 133.840 377.707, 132.426 391.721, 140.092 400.452 C 141.746 402.336, 144.724 404.414, 146.708 405.069 C 152.401 406.948, 161.855 405.593, 170.230 401.698 C 189.995 392.507, 207.644 369.657, 230.971 323.059 C 239.837 305.346, 242.331 302, 246.663 302 C 249.905 302, 250.657 299.951, 248.159 297.928 C 246.972 296.966, 246 295.296, 246 294.217 C 246 293.137, 249.787 282.859, 254.415 271.377 C 265.407 244.106, 276.570 213.567, 277.439 208.386 C 278.230 203.673, 276.457 201, 272.539 201 C 268.536 201, 266.207 204.115, 260.206 217.500 C 251.321 237.318, 242.311 251.151, 225.428 270.892 C 203.910 296.054, 183.962 311.069, 161.658 318.895 C 152.207 322.211, 150.664 322.460, 139.482 322.479 C 127.966 322.499, 127.194 322.367, 120.982 319.305 C 104.366 311.115, 97.219 297.498, 98.253 276 C 99.228 255.725, 108.522 235.540, 127.030 213.500 C 134.786 204.264, 153.752 185.423, 162.500 178.265 C 202.039 145.912, 258.700 116.680, 305 104.749 C 318.453 101.283, 322.349 100.693, 334.500 100.286 C 342.200 100.029, 349.563 100.225, 350.863 100.723 C 352.987 101.536, 352.430 101.959, 345.363 104.895 C 319.267 115.738, 296.336 131.792, 284.885 147.237 C 274.798 160.840, 271.733 171.100, 273.876 184.078 C 277.772 207.669, 291.275 223.736, 355.500 281.202 C 392.529 314.334, 410.280 332.582, 412.453 339.750 C 413.483 343.150, 412.208 345.837, 408.679 347.704 C 399.918 352.339, 349.259 345.785, 334.108 338.055 C 329.036 335.467, 325.766 331.352, 326.590 328.593 C 327.748 324.715, 335.450 317.907, 342.801 314.264 C 349.275 311.055, 350.974 310.645, 357.801 310.638 C 363.976 310.632, 366.746 311.168, 371.795 313.347 C 378.136 316.083, 380 316.101, 380 313.426 C 380 309.579, 368.420 305.922, 356.113 305.883 C 338.113 305.826, 316.545 318.984, 316.545 330.023 C 316.545 338.786, 328.154 345.278, 354 350.970 C 374.856 355.563, 404.526 356.340, 413.754 352.534 C 418.630 350.523, 423.005 345.853, 422.990 342.673 C 422.973 338.789, 418.372 330.647, 412.371 323.880 C 405.436 316.060, 380.596 292.628, 352 266.932 C 307.689 227.115, 297.185 215.947, 289.518 200.500 C 284.133 189.652, 282.555 182.845, 283.318 173.751 C 285.060 152.969, 306.267 131.166, 340.500 114.960 C 347.100 111.836, 355.105 108.317, 358.289 107.139 L 364.079 104.999 367.023 107.175 C 377.750 115.106, 380.850 133.782, 374.435 151.836 C 371.168 161.032, 371.689 163.196, 376.745 161.424 C 381.954 159.599, 388 144.116, 388 132.602 C 388 122.068, 384.001 111.001, 378.042 105.042 L 374.251 101.251 388.876 97.153 C 419.886 88.464, 458.366 81.506, 492.250 78.461 L 500 77.765 500 74.383 C 500 72.522, 499.887 71.047, 499.750 71.104 C 499.613 71.161, 491.850 72.026, 482.500 73.025 M 218.971 310.442 C 191.873 320.429, 155.807 352.213, 147.870 373.100 C 144.060 383.127, 144.582 393.502, 149.101 397.591 C 157.327 405.034, 177.868 390.985, 194.619 366.459 C 206.574 348.954, 225.986 312.404, 224.557 310.091 C 223.741 308.772, 223.450 308.791, 218.971 310.442" stroke="none" fill="#fbfbfb" fill-rule="evenodd"/></svg>